# xmcd
#
# Track frame offsets:
#	150
#	18032
#	33375
#	48994
#	65473
#	82695
#
# Disc length: 1306 seconds
#
# Revision: 0
# Processed by: cddbd v1.5.2PL0 Copyright (c) Steve Scherf et al.
# Submitted via: audiograbber 1.83.01
#
DISCID=38051806
DTITLE=Carter's Chord - Wild together
DYEAR=2011
DGENRE=Country
TTITLE0=Wild together
TTITLE1=I can break hearts too
TTITLE2=A little less comfortable
TTITLE3=Simple little screwed up life
TTITLE4=We ain't makin' love
TTITLE5=Love alittle bigger
EXTD=
EXTT0=
EXTT1=
EXTT2=
EXTT3=
EXTT4=
EXTT5=
PLAYORDER=
